<?xml version="1.0" encoding="UTF-8"?>
<svg xmlns="http://www.w3.org/2000/svg" viewBox="0 0 212.09 130.21">
  <defs>
    <style>
      .cls-2 {
        fill: #f1f2f4;
      }

      .cls-3 {
        fill: #ff9100;
      }
    </style>
  </defs>
  <path class="cls-2" d="m211.85,84.78c.15-.28.24-.61.24-.95,0-1.1-.89-1.99-1.98-2,0,0-.01,0-.02,0-.02,0-.05,0-.07,0h0s0,0,0,0c-.07,0-.14,0-.21.02l-5.59.71c-.71.09-1.32.55-1.59,1.21l-1.71,4.11-1.05-3.15c-.2-.58-.64-1.01-1.19-1.22.05-.3.03-.61-.07-.91l-2.09-6.56,7.04-14.42c.16-.28.25-.61.25-.96,0-1.1-.89-1.99-1.98-2,0,0-.01,0-.02,0-.02,0-.05,0-.07,0-.07,0-.14,0-.22.02l-5.59.71c-.71.09-1.32.55-1.59,1.21l-1.71,4.11-1.05-3.15c-.28-.82-1.05-1.36-1.9-1.36-.08,0-.17,0-.25.02l-4.1.52c1.19-.25,2.34-.49,3.38-.7,5.57-1.17,10.42-2.23,14.85-3.25,1.01-.23,1.67-1.19,1.53-2.21-.13-1-.98-1.74-1.98-1.74-.03,0-.05,0-.08,0-8.17.31-17.73.83-28.41,1.55-1.27.1-2.67.24-4.38.44-.25-.34-.52-.67-.8-.99-.93-1.04-1.6-2.31-2.11-3.98-1.54-5.02-3.46-9.96-5.7-14.69-2.26-4.76-5.6-8.11-10.22-10.22-.03-.02-.17-.15-.27-.33-1.89-3.24-4.84-5.7-8.78-7.3-6.32-2.57-13.07-4.15-20.08-4.69-.65-.05-1.29-.07-1.92-.07-4.88,0-9.07,1.54-12.47,4.57-.17-.04-.34-.07-.51-.11-.55-.12-1.08-.23-1.58-.36-.28-.08-.56-.15-.84-.23,1.1-.92,2.2-1.83,3.29-2.74.86-.71,1.73-1.42,2.59-2.13,1.2-.98,2.4-1.96,3.58-2.95.63-.52,1.27-1.02,1.95-1.55,1.44-1.12,2.94-2.28,4.26-3.69.52-.55.68-1.34.42-2.05-.26-.71-.89-1.21-1.64-1.3-.17-.02-.34-.03-.49-.03-.67,0-1.28.19-1.77.54l-.06.04c-.93.68-1.9,1.37-2.82,2.13-6.02,4.95-10.67,8.8-15.05,12.45-.03,0-.06,0-.1-.01-1.04-.14-2.08-.3-3.12-.46-2.79-.42-5.68-.86-8.59-.97-.39-.01-.77-.02-1.16-.02-6.95,0-12.41,2.46-16.25,7.31-.05.06-.21.18-.34.22-4.35,1.4-8.57,3.32-12.93,5.89-6.56,3.87-12.79,8.81-19.03,15.09-.16.16-.22.2-.23.2,0,0,0,0,0,0,0,0-.03,0-.09,0-.42-.02-.8-.02-1.17-.02-2.01,0-3.66.24-5.2.76-2.88.97-5.11,2.92-6.11,5.34-.49,1.18-.65,2.4-.49,3.56-.47.22-.93.44-1.4.66-2.01.95-4.09,1.94-6.11,2.99-1.61.84-2.92,1.92-4.19,2.96-1.21.99-2.35,1.93-3.66,2.59-.35.18-.6.4-.75.55-4.09,3.98-6.11,8.45-5.99,13.29C.71,77.16-.07,79.59,0,82.33c.06,2.23.26,4.47.46,6.63.08.92.17,1.85.24,2.77.05.6.06,1.22.06,1.88.02,1.52.04,3.23.61,4.95-.31,2.79.43,5.27,1.11,7.14.52,1.4,1.36,3.15,3.3,4.24.31.17.51.41.85.98.34.58.77,1.04,1.14,1.45.12.13.23.25.34.38.13.15.28.3.42.45.07.07.17.17.21.22.6,1.1,1.35,2.34,2.41,3.5-.08.01-.15.02-.23.03-.46.06-.85.19-1.17.29-.1.03-.2.07-.3.09-.85.24-1.44,1.01-1.45,1.89v.34c-.02.89.56,1.68,1.41,1.94.25.08.5.16.75.24.6.2,1.23.4,1.91.56,5.5,1.24,11.12,1.79,15.4,2.12l1.99.16c9.53.75,19.38,1.53,29.09,2.07,6.13.35,12.37.47,18.4.58,1.43.03,2.86.06,4.29.09.84.02,1.68.03,2.51.03,2.08,0,4.26-.05,6.49-.16,4.2,1.96,8.66,3,12.93,3,.48,0,.97-.01,1.45-.04.04,0,.08,0,.11,0,5.4-.6,13.42-1.64,23.86-3.08l.94-.13c6.15-.86,12.51-1.75,18.4-3.66.71-.23,1.36-.45,1.99-.69.06.08.11.16.18.23.38.38.89.59,1.42.59.1,0,.2,0,.29-.02l.81-.12c.86-.13,1.54-.8,1.68-1.66l.16-.99s.09-.03.13-.03c-.02.55.17,1.09.56,1.48.38.38.89.59,1.42.59.1,0,.2,0,.29-.02l.77-.11c.38-.06.71-.23.99-.47.25.11.53.18.81.18.1,0,.2,0,.29-.02l.77-.11c.31-.05.58-.18.83-.35.04.01.07.03.11.03.28.07.58.1.88.1.23,0,.47-.02.71-.05.45-.07.88-.19,1.28-.37.36-.16.69-.36.98-.59.04.02.07.04.11.06.44.19.92.29,1.44.29.21,0,.43-.02.65-.05.42-.06.82-.18,1.21-.36.14-.06.28-.14.41-.22.2.07.42.11.63.11.1,0,.2,0,.29-.02l.77-.11c.14-.02.26-.08.39-.12.06,0,.12.02.18.02.1,0,.2,0,.29-.02l.77-.11c.14-.02.26-.08.39-.12.06,0,.12.02.18.02.1,0,.2,0,.3-.02l.77-.12c.36-.05.67-.22.94-.43.35.12.72.19,1.11.19.19,0,.4-.02.6-.05.38-.06.74-.16,1.07-.31.05,0,.09,0,.14,0,.1,0,.2,0,.29-.02l.75-.11c.58-.09,1.06-.43,1.37-.9.36.31.82.49,1.29.49.1,0,.2,0,.29-.02l.81-.12c.86-.13,1.54-.8,1.68-1.66l.16-.99c.05,0,.1-.03.15-.04-.02.55.17,1.09.56,1.48.38.38.89.59,1.42.59.1,0,.2,0,.3-.02l.77-.12c.11-.02.21-.06.31-.1.04,0,.08.01.12.01.1,0,.2,0,.29-.02l3.73-.55c.08-.01.15-.05.23-.07.02,0,.04,0,.06,0,.1,0,.2,0,.29-.02l3.73-.55c.34-.05.63-.2.89-.4.33.1.68.17,1.04.17.21,0,.43-.02.65-.05.63-.09,1.21-.32,1.74-.65.24.1.49.15.75.15.1,0,.2,0,.29-.02l.77-.11c.43-.06.81-.26,1.1-.54.28.15.6.22.92.22.1,0,.2,0,.29-.02l.77-.11c.14-.02.27-.08.4-.13.06,0,.12.02.18.02.1,0,.2,0,.29-.02l.77-.11c.86-.13,1.54-.8,1.68-1.66l.78-4.8c.03-.14.04-.28.04-.42,0-.04,0-.08-.01-.12.18-.29.3-.61.36-.95.13-.78-.12-1.55-.67-2.09-.44-.43-1.03-.67-1.67-.67-.12,0-.25,0-.38.03-.56.08-1.08.34-1.5.75-.42.41-.7.93-.79,1.49-.12-.01-.23-.04-.36-.04-.19,0-.4.02-.6.05-.33.05-.65.14-.96.27-.05,0-.11,0-.17,0-.1,0-.2,0-.29.02l-.74.11c-.4.06-.76.25-1.05.51-.08-.03-.15-.05-.23-.07l10.96-22.74Zm-93.08,6.7c.81-1.36,1.28-2.95,1.41-4.73.07-1.05,0-2.02-.2-2.89-.23-.98-.65-1.84-1.26-2.58-.32-.38-.69-.73-1.1-1.04l1.17-.15c.95-.12,1.68-.9,1.74-1.86,0-.12,0-.22,0-.34l1.3-.17-1.05,14.69c-.02.28.02.55.11.8l-4,.51c.73-.65,1.37-1.39,1.87-2.25Zm10.83.6l1.11-15.49,1.69-.22-1.05,14.69c-.02.28.02.55.11.8l-1.86.24s0-.01,0-.02Zm52.71-30.17c-.1.17-.17.36-.22.55-.2-.1-.39-.21-.6-.29-.4-.15-.83-.27-1.28-.35.92-.19,1.84-.38,2.74-.57-.26.16-.48.39-.64.66Zm-11.23,29.01l-.24-2.05c-.02-.13-.04-.26-.08-.38l.91-.12-.6,2.55Zm24.61,8.68l-1.46,3.09-2.76-13.36,4.21,10.27Zm-10.24,8.34c-.25,0-.51.02-.78.06l-1.94.29,1.88-6.38,1.05,6.06c-.07,0-.14-.02-.21-.02Zm4.6-23.41c.1.27.28.5.48.7-.02.04-.04.09-.06.13-.37-.5-.96-.82-1.6-.82-.08,0-.17,0-.26.02l-6.57.84s-.05.02-.08.02c.79-.69,1.45-1.5,1.96-2.43.7-1.26,1.12-2.65,1.22-4.15.1-1.35-.07-2.55-.5-3.57-.32-.76-.75-1.4-1.29-1.91.42-.52.79-1.09,1.08-1.72.15-.32.27-.64.37-.98l5.24,13.87Zm-22.11-20.6c-.1.21-.16.45-.18.7l-1.57,22.03c-.02.26.02.51.1.75l-2.47.32c-.82.1-1.49.7-1.69,1.5l-.72,2.91-.19-1.99c-.05-.54-.32-1.03-.74-1.37-.36-.28-.8-.44-1.25-.44-.08,0-.17,0-.25.02l-5,.64s0-.01,0-.02l.35-4.93,1.02-.13c1.68-.21,3.2-.8,4.53-1.75,1.31-.93,2.38-2.17,3.17-3.66.77-1.46,1.23-3.14,1.36-4.99.13-1.88-.1-3.54-.69-4.92-.65-1.52-1.66-2.66-3.02-3.39-.12-.06-.24-.11-.37-.17,2.57-.37,5.11-.73,7.61-1.09Zm-77.92,47.47l-.35-2.58-.35-2.63c-.08-2.45.43-4.68,1.54-6.8.05-.1.1-.2.13-.31.73-2.23,1.94-4.12,3.7-5.75.04-.03.07-.07.1-.1,1.26-1.35,2.71-2.41,4.33-3.14.76-.35,1.21-1.12,1.17-1.92.48-1.59.85-3.43,1.19-5.08.1-.51.2-.99.3-1.44.15-.77.35-1.47.59-2.15,0,.04-.01.07-.01.11-.16,2.27.37,4.08,1.57,5.41.1.11.21.22.32.32l-1.12.14c-.95.12-1.68.9-1.74,1.85-.15,2.18.12,3.93.83,5.36.5,1.02,1.21,1.83,2.07,2.44-.45,0-.92.03-1.4.09-1.7.22-3.26.78-4.63,1.66-1.37.89-2.49,2.04-3.33,3.43-.85,1.4-1.34,2.98-1.46,4.69-.16,2.27.37,4.09,1.57,5.41.1.11.21.22.32.32l-1.12.14c-.95.12-1.68.9-1.74,1.85-.13,1.89.08,3.45.59,4.77-1.38-1.82-2.4-3.86-3.05-6.09Zm15.52,9.41c-.05,0-.11.01-.17.02.4-.18.79-.37,1.15-.59,1.4-.84,2.53-1.97,3.35-3.35.81-1.36,1.28-2.95,1.41-4.73.07-1.05,0-2.02-.2-2.89-.23-.98-.65-1.84-1.26-2.58-.32-.38-.69-.73-1.1-1.04l1.17-.15c.95-.12,1.68-.9,1.74-1.86,0-.12,0-.22,0-.34l1.3-.17-1.05,14.69c-.04.6.19,1.18.62,1.6.37.35.86.55,1.37.55-2.89.28-5.68.56-8.21.83-.04,0-.09.01-.13.02Zm38.93-2.87c-.86-.04-1.79-.06-2.76-.06-4.13,0-8.36.36-12.45.7l-1.59.13c-4.27.36-8.86.78-13.25,1.2l4.54-.58c.94-.12,1.67-.89,1.74-1.84l1.11-15.49,1.69-.22-1.05,14.69c-.04.6.19,1.18.62,1.6.37.35.87.55,1.37.55.08,0,.17,0,.25-.02l12.94-1.65c.15-.02.29-.06.43-.11.06,0,.12.02.18.02.08,0,.17,0,.25-.02l4.83-.62c.94-.12,1.67-.89,1.74-1.84l.35-4.93,1.02-.13c1.68-.21,3.2-.8,4.53-1.75,1.13-.81,2.07-1.84,2.81-3.07l1.16,7.97c-.14.01-.27.01-.41.03l-2.23.33c-.86.13-1.54.8-1.68,1.66l-.64,3.93c-2.04-.31-4.01-.42-5.52-.48Z"/>
  <g>
    <g>
      <path d="m139.12,57.7c.85-.14,1.25.03,1.6.75.64,1.3,1.16,2.62,1.56,3.96.01,0,.02,0,.03,0,.2,0,.39,0,.58.01-.47-1.53-1.12-3.03-1.92-4.48-.05-.09-.08-.18-.16-.38.54-.1,1.05-.21,1.56-.29,3.07-.5,6.15-.95,9.21-1.49,4.01-.71,5.9-2.81,5.8-6.41-.13-4.71-1.73-9.12-3.76-13.42-.71-1.49-1.68-2.89-2.63-4.28-.37-.53-.94-1.05-1.55-1.34-5.73-2.76-11.85-4.29-18.42-4.12-4.69.12-8.35,2.19-11.48,5.09-3.81,3.54-6.42,7.76-8.65,12.16-1.54,3.04-2.91,6.15-4.18,9.28-1.2,2.95-.36,5.51,2.39,7.56.99.74,2.06,1.23,3.38,1.22,1.69,0,3.34-.11,4.82-.97.24-.14.58-.17.89-.19,3.5-.33,7.01-.56,10.48-1,3.5-.44,6.98-1.06,10.46-1.65Zm-24.31-1.53c-2.44-.05-2.53.1-2.42-2.52.02-.39.17-.77.29-1.25,1.75,1.19,3.7,1.27,5.65,1.23,1.97-.05,3.95-.2,5.92-.31-2.71.02-5.43.09-8.14.02-.84-.02-1.71-.34-2.49-.66-.79-.32-.87-.81-.48-1.5,1.05-1.82,2.74-3.02,4.93-3.55,3.75-.9,7.42-.6,10.92.93.5.22.96.54,1.38.87.72.58.75,1.19.1,1.84-.99.99-2.35,1.36-3.74,1.64-.82.17-1.66.28-2.5.41,1.79.02,3.52-.29,5.09-1.03.8-.38,1.41-1.08,2.17-1.68.77,1.05,1.29,2.31.92,3.72-.07.27-.63.56-1.01.62-2.46.37-4.92.8-7.4.97-3.05.21-6.12.31-9.18.25Z"/>
      <path d="m160.32,49.76c-.75-3.48-1.83-6.88-3.18-10.21-.09-.22-.2-.44-.44-.62.35.99.69,1.99,1.06,2.98,1.4,3.73,2.1,7.59,2.89,11.43.39,1.87.82,3.75,1.54,5.53.18.45.34.9.48,1.35.1-.03.2-.07.29-.1,0-.02-.01-.03-.02-.05-1.41-3.34-1.87-6.86-2.62-10.32Z"/>
      <path d="m133.56,22.28c7.03,1.07,13.5,3.55,19.47,7.03,2.36,1.38,3.87,3.31,5.05,5.54,2.34,4.42,4.01,9.05,5.53,13.72.93,2.86,1.94,5.66,4.1,8.02.16.17.28.38.41.57.03.04.02.1.03.14-1.54.43-2.09.98-1.87,2.13.74-.07,1.49-.1,2.26-.07.62,0,1.23.03,1.83.08-.43-1.49-1.21-2.92-2.41-4.26-1.25-1.4-2-3.01-2.53-4.72-1.51-4.91-3.37-9.72-5.6-14.42-1.92-4.05-4.8-7.22-9.24-9.26-.49-.22-.91-.69-1.17-1.14-1.74-2.98-4.41-5.07-7.8-6.46-6.19-2.52-12.68-4.03-19.48-4.55-5.08-.39-9.48.85-13.05,4.13-.37.34-.73.52-1.26.4-.85-.19-1.7-.35-2.54-.57-1.47-.4-2.93-.84-4.48-1.29,2.1-1.76,4.14-3.46,6.18-5.15,2.05-1.7,4.13-3.36,6.17-5.07,2.01-1.68,4.24-3.16,6.04-5.08-.35-.04-.65,0-.85.14-.94.68-1.89,1.37-2.78,2.1-5.04,4.15-10.08,8.31-15.09,12.48-.5.42-.94.48-1.59.39-3.83-.52-7.66-1.26-11.52-1.41-6.43-.25-11.92,1.67-15.76,6.53-.3.38-.8.72-1.3.88-4.45,1.43-8.6,3.4-12.52,5.71-7,4.13-13.08,9.2-18.62,14.77-.52.52-1.01.83-1.86.79-1.9-.07-3.78.02-5.61.64-4.25,1.43-6.26,5.21-4.85,8.04-.06.04-.11.1-.18.14-2.93,1.42-5.91,2.76-8.79,4.26-2.91,1.52-4.91,4.08-7.87,5.56-.1.05-.18.12-.26.2-3.49,3.4-5.55,7.29-5.38,11.97.01.28-.02.63-.2.84-1.57,1.85-2.19,3.99-2.13,6.22.09,3.1.45,6.2.69,9.3.18,2.24-.14,4.52.7,6.71.03.09,0,.2,0,.3-.3,2.22.21,4.34.98,6.43.46,1.25,1.09,2.45,2.41,3.19.76.43,1.19,1.02,1.59,1.7.33.56.84,1.04,1.28,1.55.28.33.66.62.86.98,1.22,2.26,2.75,4.27,5.28,5.54.1.05.16.17.33.36-1.72.21-3.31.39-4.91.6-.41.05-.79.22-1.19.33,0,.11,0,.23,0,.34.84.26,1.66.57,2.51.76,4.96,1.12,10.03,1.68,15.11,2.08,10.34.81,20.68,1.64,31.03,2.23,7.53.43,15.08.51,22.62.67,5.73.12,11.44-.16,17.12-.77-.32-.16-.63-.33-.95-.51-1.38-1.07-2.77-2.14-4.15-3.21-2.54-2.56-4.3-5.57-5.27-9.05-.24-1.82-.49-3.63-.73-5.45-.11-2.82.48-5.46,1.77-7.9.83-2.54,2.24-4.74,4.24-6.6,1.45-1.56,3.1-2.76,4.97-3.6-.11-.33-.21-.66-.31-1-.24-1.82-.49-3.63-.73-5.45-.02-.66-.01-1.31.04-1.94-.16.06-.32.13-.48.2-1.51.66-2.7,1.65-3.77,2.77-.2.21-.41.41-.7.7-.91-1.04-1.74-1.98-2.62-2.98,1.79-2.47,4.08-4.49,7.28-5.56.56-.19,1.12-.32,1.68-.4.1-.22.21-.44.33-.66,0-.02.02-.05.02-.07-.69.09-1.39.25-2.1.47-2.99.93-5.25,2.72-6.99,5.05-.22.29-.42.58-.66.9-.13-.04-.25-.06-.33-.11-1.59-.95-3.18-1.92-4.77-2.87-.93-.55-.94-.6-.45-1.46,1.09-1.91,1.97-3.88,2.38-6,.42-2.2-.68-3.37-3.19-3.4-.92-.01-1.85,0-2.86,0,.61-1.31,1.72-2.14,2.85-2.93,2.07-1.44,4.19-2.82,6.28-4.24.38-.26.74-.55,1.08-.85,1.08-.97,1.26-1.3,1.57-2.88,2.79-.02,4.56-1.62,6.24-3.31.48-.48.79-.45,1.31-.09,1.96,1.35,3.3,3.1,4.19,5.11,1.09,2.45,2.04,4.93,2.84,7.44.14-.09.28-.17.42-.25-.87-2.72-1.83-5.42-3.14-8.01-1.04-2.07-2.61-3.73-4.73-5.01,4.53-5.44,7.06-11.8,10.98-17.49,1.82-2.64,3.63-5.3,6.32-7.32,4.99-3.75,10.85-5.27,17.28-4.29Zm-9.26-2.05c.04-.48.08-.9.12-1.4.48.02.93,0,1.36.06,3.39.53,6.79,1.07,10.17,1.64.55.09,1.09.3,1.58.53.3.14.5.45.67.79-4.58-.99-9.14-1.73-13.9-1.63Zm3.75-4.04c3.82.64,7.56,1.54,11.08,3.03.13.05.25.11.38.17,1.14.54,1.16.59.65,1.82-4.84-1.91-9.92-2.72-15.1-3.13-.26-.02-.58-.3-.72-.54-.34-.59-.6-1.22-.96-1.98,1.62.21,3.15.36,4.66.62Zm-9.88-.62c-4.86,1.28-8.03,4.36-10.83,7.85,1.34-3.77,5.77-7.43,10.83-7.85Zm-16.29,2.72c.83.3,1.72.47,2.58.7,0,.07-.01.14-.02.21h-5.48c.05-.14.06-.17.07-.19.67-1.09,1.64-1.15,2.84-.72Zm-2.64-.7c-.61,1.06-1.23,1.35-2.25,1.24-1.91-.19-3.82-.36-5.73-.53-.19-.02-.37-.06-.82-.12.38-.21.55-.3.76-.41q-1.82-.09-2.03-1.43c3.38.42,6.69.83,10.07,1.26Zm-9.14,1.31c1.8.19,3.6.32,5.41.47.11,0,.21.05.31.16-2.44.14-4.88.28-7.33.43.19-.81.67-1.16,1.62-1.06Zm-5.08-2.5c-4.72.58-8.14,3.26-11.74,5.67,2.87-3.57,7.02-5.09,11.74-5.67Zm-31.75,16.75c2.92-2.07,5.92-4.05,9.27-5.57.22-.1.47-.21.71-.22,5.61-.17,11.22-.32,16.83-.48.28,0,.56,0,.87.09-.16.05-.31.13-.47.15-3.87.52-7.73,1.03-11.6,1.57-.51.07-1.06.23-1.49.49-7.42,4.33-14.39,9.16-20.77,14.65-2.29,1.97-4.5,4.02-6.79,6.01-.34.3-.84.5-1.31.62-1.21.3-2.35.6-3.23,1.52-.58.61-1.41.05-2.29.03,1.02-1.12,1.91-2.11,2.81-3.1,5.22-5.77,10.92-11.13,17.45-15.76Zm10.03,4.6c-.67,1.3-1.93,2.15-3.34,2.79-.67.3-1.43.44-2.14.66-1.39-.09-1.97-.85-1.3-1.86,1.19-1.81,3.09-2.83,5.31-3.38.45-.11,1.29.04,1.49.33.25.36.2,1.04-.02,1.47Zm-7.54,4.27c.02,1.01-1.69,2.13-2.74,1.72-.28-.11-.58-.56-.56-.85.03-.64,1.31-1.65,2.03-1.75.73-.1,1.26.26,1.28.87Zm-27.18,6.58c.81-1.17,1.99-1.97,3.41-2.49,1.65-.61,3.39-.62,5.28-.6-.2.24-.3.38-.42.5-1.48,1.48-3,2.93-4.44,4.44-.63.66-1.36.65-2.14.44-.86-.23-1.66-.6-1.91-1.44-.07-.25.05-.6.22-.83Zm-.64,1.07q1.22,1.15,3.38,1.82c-.94.34-1.87.71-2.83.99-.14.04-.53-.27-.62-.48-.34-.76-.27-1.54.07-2.33Zm-15.36,18.15c.35.1.48.79.78,1.33-.42.77-.74,1.58-1.28,2.24-.24.3-1.01.52-1.38.39-.36-.12-.78-.78-.69-1.1.22-.82.61-1.64,1.14-2.34.25-.34,1.04-.64,1.43-.53Zm-3.46-1.02c.38-.33.86-.57,1.34-.79,1.21-.57,2.03-.06,1.95,1-1.7.05-2.66,1.08-3.47,2.2-1.26,1.75-1.98,3.65-1.75,5.76.14,1.29.57,2.45,1.97,3.2-.65.89-1.49,1.04-2.07.27-.58-.77-1.04-1.68-1.25-2.58-.83-3.55.39-6.57,3.3-9.07Zm9.1,42.1c-2.13-.29-4.25-.6-6.38-.92-1.5-.22-1.5-.23-2.52.5-.16-.9.55-1.66,1.6-1.61.85.04,1.68.21,2.52.32,10.08,1.33,20.22,2.16,30.39,2.7,3.8.2,7.15,1.17,10.12,3.24.08.06.16.12.39.29-.83-.27-1.49-.41-2.08-.68-2.64-1.21-5.49-1.46-8.4-1.63-8.57-.5-17.15-1.05-25.65-2.21Zm-4.69-19.16c-.01-1.39.2-1.53,1.72-1.33,4.32.57,8.62,1.24,12.96,1.65,3.18.3,6.4.28,9.6.36,2.43.06,2.66.22,2.69,2.38.02,1.13.02,2.26,0,3.38-.01,1.18-.56,1.63-1.89,1.6-.91-.02-1.81-.08-2.72-.13-6.74-.35-13.48-.74-20.11-1.93-2.03-.36-2.22-.55-2.23-2.38-.01-1.2-.02-2.41-.02-3.61Zm21.19,26.98c.72-.8,1.51-1.7,2.33-2.57.11-.11.39-.14.59-.13,1.64.1,3.28.23,4.92.32,3.27.19,6.55.41,9.83.52,1.05.03,2.11-.24,3.17-.36.28-.03.56-.06.84-.06,5.58.01,11.16.03,16.75.04.15,0,.31.04.46.14-12.99.7-25.98,1.4-38.87,2.09Zm54.79-35.78c.77.84,1.55,1.65,2.28,2.5.13.15.13.54,0,.7-4.27,5.45-6.66,11.57-8.28,17.97-.11.44-.32.63-.82.67-.98.08-1.96.21-3.01.32.06-4.36,6.52-18.92,9.83-22.17Zm-7.36-3.75c.28-.16.55-.35.73-.47,2.03,1.27,4.02,2.52,6.08,3.82-.41.57-.8,1.08-1.17,1.61-2.94,4.18-4.89,8.75-6.48,13.44-.78,2.3-1.41,4.64-2.07,6.97-.13.46-.34.66-.89.7-2.2.15-4.4.38-6.61.5-.78.04-1.15.35-1.41.94-.73,1.62-1.89,2.92-3.82,3.53-2.94.92-5.82.83-8.47-.71-.7-.41-1.17-1.12-1.79-1.66-.23-.2-.55-.34-.85-.46-.14-.06-.35-.04-.5,0-1.65.46-2.34-.34-3.05-1.53-.87-1.45-1.95-2.82-3.14-4.08-1.66-1.74-3.86-2.7-6.49-2.69-.7,0-.92-.22-.91-.84.04-1.48.02-2.96,0-4.43-.02-1.46-.74-2.11-2.39-2.15-2.95-.07-5.92.06-8.84-.21-4.9-.47-9.77-1.19-14.65-1.8-.31-.04-.62-.08-.93-.12-.78-.09-1.27.22-1.46.87-.11.38-.15.79-.15,1.19-.02,1.72,0,3.44,0,5.14-.12.05-.17.09-.22.08-2.15-.04-2.88.35-3.67,2.13-.46,1.05-.79,2.14-1.2,3.2-.16.42-.29.9-.6,1.23-.27.28-.8.54-1.19.51-.34-.02-.82-.41-.92-.72-.23-.66-.26-1.37-.35-1.95.55-.18,1.02-.33,1.61-.52-.17.24-.35.41-.42.62-.07.21-.09.46-.04.67.03.12.33.31.4.28.21-.09.43-.25.52-.43.66-1.23.12-4.15-.93-5.16-.81-.77-1.3-.6-1.8.66-.08,0-.16,0-.25-.01.07-1.1.15-2.19.23-3.44.9.32,1.56.58,2.24.79,1.34.41,2.02.13,2.3-1.1.23-1.02.3-2.08.41-3.12.1-.96-.36-1.7-1.27-2.23-1.28-.74-2.55-1.49-3.86-2.19-.59-.32-.8-.7-.75-1.29.17-1.85.48-3.66,1.55-5.39.41.68.72,1.32,1.16,1.88.33.42.79.78,1.25,1.1.65.46,1.39.46,2.05.02.56-.37,1.08-.81,1.54-1.28.47-.48.94-.48,1.5-.19,1.07.54,1.42,1.52,1.87,2.44.28.58.51,1.17.82,1.73.81,1.45,2.09,2.46,3.91,2.75,3.07.48,6.14.99,9.23,1.29,2.36.23,4.76.16,7.14.21,2.43.04,4.54-.67,6.38-2.1,1.19-.92,2.45-1.78,3.75-2.58,1.63-1,3.51-1.46,5.43-1.73.31.63.56,1.22.89,1.77.98,1.64,2.52,2.54,4.65,2.3,3.2-.36,6.43-.65,9.57-1.29,5.91-1.21,11.3-3.56,16.37-6.48ZM5.22,97.83c.07-.79.14-1.58.21-2.37.14,0,.28.01.43.02-.12.79-.23,1.58-.35,2.36-.1,0-.19-.01-.29-.02Zm8.35-25.07c.05-.09.4-.08.59-.04,2.5.54,5,1.08,7.5,1.65.43.1.86.25,1.22.48.17.11.24.44.22.66-.01.11-.34.19-.47.26-.59-.11-1.09-.19-1.59-.29-2.2-.46-4.41-.92-6.6-1.42-.37-.08-.73-.35-.99-.61-.11-.12,0-.48.12-.67Zm11.31,2.16c1.18-1.38,2.32-2.78,3.45-4.19.49-.61,1.18-.82,1.88-.86,1.33-.01,1.78.3,2.02,1.37.32,1.45.63,2.9.96,4.35.16.67.05,1.28-.35,1.87-.92,1.35-1.79,2.73-2.72,4.07-.48.69-1.08,1.39-2.1,1.34-1.05-.05-1.38-.9-1.7-1.6-.65-1.41-1.22-2.85-1.81-4.29-.3-.73-.18-1.4.37-2.05Zm10.82,1.77c.41-.72.99-.77,1.59-.79,3.8-.11,7.59-.22,11.39-.33.45-.01.91-.11,1.35-.09.31.02.87.18.87.28.01.42-.13.78-.82.79-1.98.02-3.97.15-5.95.19-2.41.05-4.82.05-7.23.07-.35,0-.71-.07-1.2-.12Zm21.49-2.53c-.08.13-.17.26-.25.39-.97,1.71-.5,2.56,1.85,2.95-1.13.12-2.02.24-2.92.31-.93.07-1.27-.29-1.1-1.07.36-1.57,1.9-3.51,3.62-4.43-.45.69-.83,1.27-1.2,1.85Zm2.81-2.06c.79-.96,1.99-.99,3.39-.91-1.6,1.51-2.82,3.04-3.44,4.9-.16.47-1.38.67-2.12.37-.69-.27-.5-.75-.24-1.13.77-1.1,1.55-2.19,2.42-3.23Zm11.86-1.93c2.58-.43,4.1.15,5.37,1.97,1.01,1.44,1.56,3.01,1.36,4.71-.05.39-.36.84-.71,1.1-.66.49-1.43.85-2.29,1.34,1.74-4.55-.7-8.27-3.74-9.12Zm1.74,3.34c-.05,1.57-1.85,3.01-3.72,2.97-1.65-.04-2.82-1.03-2.79-2.36.04-1.53,1.87-2.94,3.78-2.9,1.65.03,2.77.97,2.73,2.3Zm16.66-15.71c-1.62,1.24-3.34,2.39-5.02,3.57-1.35.95-2.73,1.87-4.03,2.87-.54.42-1.03.97-1.33,1.54-.35.67-.85.86-1.61.96-7.07.93-14.13,1.9-21.19,2.86-1.62.22-2.9.92-3.94,2.04-.22.23-.65.44-.99.44-4.28.09-8.56.18-12.84.19-2.3,0-3.11-.6-3.85-2.52-.94-2.42-2.08-3.05-4.95-2.54-.71.13-1.4.54-1.99.94-1.01.68-1.94,1.46-2.9,2.2-.73.56-1.62.8-2.54.64-2.58-.46-5.15-.97-7.7-1.55-.44-.1-.95-.62-1.06-1.02-.35-1.31-.5-2.65-.78-3.98-.33-1.55.29-2.79,1.62-3.73,1.7-1.2,3.41-2.41,5.25-3.44,3.41-1.91,7.12-3.3,10.88-4.59.6-.21,1.13-.15,1.77-.04,2.61.44,5.24.93,7.88,1.08,5.72.32,11.44.46,17.17.65,7.54.25,15.08.47,22.62.73,2.32.08,4.64.27,6.96.37,1.12.05,2.25,0,3.4,0,.27.96-.12,1.74-.83,2.29Zm36.12-35.92c-4.59.6-8.62,2.22-11.95,5.13-.22.19-.66.33-.95.28-7.81-1.37-15.72-1.66-23.63-1.61-7.43.04-14.85.37-22.28.58-.93.03-1.86.16-2.78.25-.04-.06-.07-.11-.11-.17,1.33-.53,2.64-1.1,3.99-1.58,4.78-1.67,9.79-2.55,14.86-3.14,3.96-.46,7.95-.73,11.93-1.08.19-.02.39,0,.8,0-1.28.98-2.1,2.17-3.62,2.66-.55.18-1.07.48-.85,1.01.12.28.73.54,1.12.54.61,0,1.1-.34,1.23-.96.07-.31.22-.61.38-.89.08-.15.29-.24.41-.38,1.49-1.92,3.6-2.52,6.15-2.43,1.95.06,3.91-.12,5.86-.19.27,0,.55,0,.86,0-.63,1.03-1.25,1.97-1.77,2.96-.55,1.04-.28,1.58.94,1.98,1.84.61,3.71.47,5.51-.06,1.77-.52,3.48-1.2,5.21-1.84,3.13-1.15,6.33-1.91,9.77-1.51.25.03.49.06.75.23-.61.07-1.22.13-1.83.21Z"/>
      <path d="m60.29,57.9c-.07-.13-.29-.35-.31-.59-.04-.47.63-1.03,1.11-.9.27.08.58.4.62.64.08.44-.61.87-1.42.84Z"/>
      <path d="m41.09,56.05c0,.6-.67,1.19-1.18,1.12-.18-.03-.33-.26-.49-.39.39-.35.76-.71,1.18-1.02.05-.04.37.22.49.29Z"/>
      <path d="m73.57,88.31c.23,0,.45,0,.68,0,2.38,0,3.44.98,2.91,3.03-.61,2.39-1.43,4.74-2.3,7.07-.51,1.35-2.5,2.3-4.11,2.18-.27-.02-.55-.11-.79-.23-.29-.14-.58-.32-.82-.53-2.34-2.07-5.09-2.64-8.28-1.95-1.45.32-2.96.47-4.45.63-1.91.21-3.55-.34-4.77-1.66-.84-.91-1.69-1.84-2.28-2.88-.93-1.61-.23-2.87,1.77-3.19,2.53-.41,5.1-.67,7.66-.95,4.92-.54,9.85-1.05,14.78-1.57,0,.02,0,.04.01.05Z"/>
      <path d="m56.31,105.07c-.44-.86-.47-1.53-.17-2.2.82-1.84,3.22-3.13,5.75-3.11,2.58.02,4.75,1.25,5.58,3.16.52,1.19.26,2.45-.73,3.26-1.06.86-2.25,1.11-3.59.51-.22-.1-.46-.17-.89-.32.42-.08.64-.13.97-.2-1.95-1.64-2.5-3.42-.57-5.49-1.61-.16-2.99.16-4.2.95-1.21.8-2.02,1.85-2.16,3.43Z"/>
      <path d="m29.27,73.33c.95,2.21.85,4.2-1.14,5.89-1.66-2.11-1.18-4.73,1.14-5.89Z"/>
    </g>
    <g>
      <path d="m110.44,94.42c-1.55.2-2.88.09-3.98-.34-1.1-.43-1.92-1.18-2.46-2.28-.54-1.09-.75-2.54-.63-4.35l4.59-.59c-.01.65.08,1.18.3,1.61.21.43.53.73.95.9.42.18.94.22,1.55.15.51-.07.96-.2,1.32-.4.37-.2.66-.46.87-.76.21-.31.33-.65.36-1.02.02-.33-.04-.62-.2-.85-.16-.23-.43-.43-.82-.58-.39-.16-.9-.27-1.55-.34l-1.74-.23c-1.57-.21-2.77-.77-3.59-1.67-.83-.91-1.18-2.21-1.06-3.92.1-1.4.49-2.67,1.18-3.8.69-1.13,1.59-2.06,2.71-2.79,1.12-.72,2.38-1.18,3.79-1.36,1.44-.18,2.66-.05,3.67.41s1.75,1.19,2.24,2.2c.49,1.01.69,2.25.61,3.7l-4.6.59c.01-.72-.17-1.27-.54-1.62-.37-.36-.95-.49-1.71-.39-.48.06-.89.19-1.23.38-.34.19-.59.43-.77.71-.18.28-.28.59-.31.93-.03.35.04.65.18.88.15.24.4.42.75.56.35.14.8.25,1.35.33l1.42.18c.96.13,1.79.36,2.46.67.68.32,1.23.73,1.64,1.23.41.5.7,1.09.86,1.77.16.68.21,1.44.15,2.29-.1,1.47-.48,2.75-1.13,3.85-.65,1.1-1.54,1.98-2.66,2.65-1.12.67-2.44,1.1-3.96,1.3Z"/>
      <path d="m118.77,76.11l.35-4.91,15.3-1.96-.35,4.91-5.24.67-1.22,17.12-4.82.62,1.22-17.12-5.24.67Z"/>
      <path d="m133.34,91.21l1.57-22.03,12.97-1.66-.35,4.91-8.14,1.04-.26,3.64,7.47-.96-.34,4.76-7.47.96-.27,3.82,8.1-1.04-.35,4.91-12.94,1.65Z"/>
      <path d="m147.14,89.45l1.57-22.03,7.6-.97c1.34-.17,2.48,0,3.44.51.95.51,1.66,1.32,2.13,2.42.47,1.1.64,2.43.53,4-.11,1.58-.49,2.98-1.14,4.2-.64,1.22-1.5,2.21-2.56,2.96-1.06.76-2.27,1.22-3.62,1.39l-4.6.59.34-4.73,3.75-.48c.55-.07,1.04-.25,1.45-.54.41-.29.74-.67.98-1.14.25-.47.39-1.01.43-1.61.04-.62-.02-1.13-.21-1.54-.18-.41-.46-.7-.84-.88-.38-.18-.84-.24-1.39-.17l-1.81.23-1.23,17.18-4.83.62Z"/>
      <path d="m168.18,86.81l1.57-22.03,7.67-.98c1.35-.17,2.46-.09,3.35.25.89.34,1.53.89,1.94,1.66.41.76.57,1.7.49,2.8-.06.82-.25,1.58-.59,2.3-.33.71-.77,1.32-1.31,1.84-.54.51-1.16.9-1.87,1.15v.18c.75-.07,1.42.08,2.01.44.59.36,1.04.91,1.35,1.64.31.73.43,1.62.35,2.65-.09,1.2-.41,2.31-.97,3.31-.56,1-1.33,1.84-2.29,2.49-.96.66-2.09,1.07-3.37,1.23l-8.34,1.07Zm5.14-5.35l2.34-.3c.76-.1,1.35-.36,1.78-.8.42-.44.66-1.01.71-1.73.04-.5-.03-.92-.19-1.24-.16-.33-.4-.56-.73-.71-.32-.14-.72-.19-1.19-.13l-2.4.31-.33,4.6Zm.6-8.44l2.06-.26c.4-.05.77-.18,1.09-.38.32-.2.58-.47.78-.8.2-.33.31-.72.34-1.16.05-.66-.1-1.15-.45-1.47-.35-.32-.81-.44-1.39-.36l-2.11.27-.3,4.17Z"/>
      <path d="m191.92,83.83l-7.9-20.88,5.64-.72,2.09,6.22c.18.55.34,1.12.48,1.7.14.58.28,1.24.42,1.96l-.7.09c.23-.77.45-1.47.66-2.1.21-.63.45-1.25.71-1.86l2.86-6.86,5.62-.72-7.43,15.22,2.33,7.32-4.78.61Z"/>
      <path class="cls-3" d="m101.53,119.82c-1.55.2-2.88.09-3.98-.34-1.1-.43-1.92-1.18-2.46-2.28-.54-1.09-.75-2.54-.63-4.35l4.59-.59c-.01.65.08,1.18.3,1.61.21.43.53.73.95.9.42.18.94.22,1.55.15.51-.07.96-.2,1.32-.4.37-.2.66-.46.87-.76.21-.31.33-.65.36-1.02.02-.33-.04-.62-.2-.85-.16-.23-.43-.43-.82-.58-.39-.16-.9-.27-1.55-.34l-1.74-.23c-1.57-.21-2.77-.77-3.59-1.67-.83-.91-1.18-2.21-1.06-3.92.1-1.4.49-2.67,1.18-3.8.69-1.13,1.59-2.06,2.71-2.79,1.12-.72,2.38-1.18,3.79-1.36,1.44-.18,2.66-.05,3.67.41s1.75,1.19,2.24,2.2c.49,1.01.69,2.25.61,3.7l-4.6.59c.01-.72-.17-1.27-.54-1.62-.37-.36-.95-.49-1.71-.39-.48.06-.89.19-1.23.38-.34.19-.59.43-.77.71-.18.28-.28.59-.31.93-.03.35.04.65.18.88.15.24.4.42.75.56.35.14.8.25,1.35.33l1.42.18c.96.13,1.79.36,2.46.67.68.32,1.23.73,1.64,1.23.41.5.7,1.09.86,1.77.16.68.21,1.44.15,2.29-.1,1.47-.48,2.75-1.13,3.85-.65,1.1-1.54,1.98-2.66,2.65-1.12.67-2.44,1.1-3.96,1.3Z"/>
      <path class="cls-3" d="m109.87,101.51l.35-4.91,15.3-1.96-.35,4.91-5.24.67-1.22,17.12-4.82.62,1.22-17.12-5.24.67Z"/>
      <path class="cls-3" d="m124.44,116.62l1.57-22.03,12.97-1.66-.35,4.91-8.14,1.04-.26,3.64,7.47-.96-.34,4.76-7.47.96-.27,3.82,8.1-1.04-.35,4.91-12.94,1.65Z"/>
      <path class="cls-3" d="m138.24,114.85l1.57-22.03,7.6-.97c1.34-.17,2.48,0,3.44.51.95.51,1.66,1.32,2.13,2.42.47,1.1.64,2.43.53,4-.11,1.58-.49,2.98-1.14,4.2-.64,1.22-1.5,2.21-2.56,2.97-1.06.76-2.27,1.22-3.62,1.39l-4.6.59.34-4.73,3.75-.48c.55-.07,1.04-.25,1.45-.54.41-.29.74-.67.98-1.14.25-.47.39-1.01.43-1.61.04-.62-.02-1.13-.21-1.54-.18-.41-.46-.7-.84-.88-.38-.18-.84-.24-1.39-.17l-1.81.23-1.23,17.18-4.83.62Z"/>
      <path class="cls-3" d="m156.97,112.46l-3.12-21.43,5.37-.69.8,8.37c.11,1.05.19,2.18.25,3.4.06,1.21.12,2.43.17,3.63.05,1.21.11,2.35.18,3.41l-1,.13c.24-1.11.49-2.28.73-3.53.24-1.25.49-2.5.74-3.75.25-1.25.52-2.43.79-3.53l2.18-8.75,4.8-.61.96,8.35c.12,1.05.22,2.18.3,3.39.08,1.21.15,2.42.22,3.63.07,1.21.14,2.34.23,3.41l-1.01.13c.23-1.1.45-2.28.68-3.52.23-1.25.46-2.49.7-3.75.24-1.25.48-2.43.73-3.52l2.04-8.73,5.37-.69-6.27,22.63-5.43.69-1.16-9.01c-.17-1.35-.29-2.83-.35-4.46-.06-1.63-.16-3.25-.31-4.88l1.31-.17c-.42,1.69-.76,3.38-1.04,5.04-.27,1.67-.6,3.21-.97,4.64l-2.48,9.48-5.43.69Z"/>
      <path class="cls-3" d="m174.93,110.16l7.36-22.77,6.57-.84,4.39,21.27-5.46.7-1.43-8.29c-.3-1.8-.58-3.65-.83-5.56-.25-1.91-.49-3.82-.7-5.73l1.14-.15c-.48,2.01-.97,4.01-1.47,6.01-.5,2-1.03,3.96-1.6,5.87l-2.59,8.8-5.37.69Z"/>
      <path class="cls-3" d="m194.15,107.6l3.73-7.94-5.56-13.56,5.64-.72,2.09,6.22c.18.55.34,1.12.48,1.7.14.58.28,1.24.42,1.96l-.7.09c.23-.77.45-1.47.66-2.1.21-.63.45-1.25.71-1.86l2.86-6.86,5.62-.72-11.16,23.16-4.78.61Z"/>
    </g>
    <path d="m95.64,88.29c-1.68-5.11-.33-11.47,2.66-15.89,2.45-3.63,6.55-5.86,10.65-7.01,2.52-.74,5.16-1.13,7.74-1.49,12.96-1.89,28.12-3.79,41.18-5.48,5.14-.61,11.75-1.61,16.87-2.02,9.24-.62,19.11-1.19,28.36-1.54-4.93,1.13-9.86,2.2-14.8,3.24-4.35.89-10.54,2.25-14.83,3-16.48,2.44-35.79,5.04-52.31,7.38-4.54.69-9.86,1.05-14,2.92-4.19,1.8-6.48,5.38-7.34,9.82-.45,2.1-.94,4.98-1.66,7.05,0,0-2.51.02-2.51.02h0Z"/>
    <path d="m82.39,112.93c4.66,4.72,10.47,8.56,17.07,9.72,2.12.35,4.34.49,6.42.14,6.87-.73,15.07-1.5,21.96-2.08,5.33-.44,11.22-1.01,16.56-.77,1.87.07,3.74.2,5.6.5-.88.36-1.77.67-2.67.95-6.03,1.95-12.73,2.83-19,3.71-7.56,1.05-17.08,2.33-23.8,3.07-7.24.39-14.42-2.41-20.02-6.85-2.02-1.58-3.86-3.35-5.51-5.26l3.39-3.13h0Z"/>
    <g>
      <path d="m151.53,121.42l1.07-6.62,2.23-.33c.49-.07.88-.04,1.18.09.3.13.5.35.62.63.11.29.14.63.08,1.03-.06.4-.2.77-.42,1.11-.21.34-.5.63-.86.86-.36.23-.78.38-1.27.46l-1.64.24.12-.74,1.6-.24c.34-.05.62-.15.85-.3.23-.15.41-.33.54-.56s.22-.46.26-.72c.04-.26.03-.48-.04-.67-.07-.19-.19-.32-.39-.41-.19-.09-.46-.1-.79-.05l-1.38.21-.95,5.88-.81.12Z"/>
      <path d="m156.6,120.67l.79-4.9.74-.11-.12.76h.04c.13-.27.31-.49.56-.68.24-.18.51-.3.8-.34.06,0,.13-.02.2-.02.07,0,.13-.01.17-.02l-.13.8s-.09,0-.18,0c-.09,0-.18.01-.28.02-.22.03-.42.11-.61.23-.19.12-.35.27-.48.46s-.21.4-.25.63l-.49,3.06-.77.11Z"/>
      <path d="m159.46,120.24l.79-4.9.77-.12-.79,4.9-.77.11Zm1.31-5.79c-.15.02-.26-.01-.35-.1-.09-.09-.12-.2-.1-.35.02-.15.1-.28.22-.39s.26-.19.4-.21c.15-.02.26.01.35.1.09.09.12.2.1.35-.02.15-.1.28-.22.4-.12.12-.26.19-.41.21Z"/>
      <path d="m162.76,119.86c-.32.05-.61.04-.85-.01-.24-.06-.43-.16-.58-.32-.14-.16-.23-.37-.24-.63,0-.02,0-.04,0-.07,0-.02,0-.04,0-.07l.75-.21c.01.26.1.44.26.54.16.1.39.13.67.08.23-.03.43-.1.62-.2s.33-.22.45-.36c.12-.14.18-.28.2-.43.02-.15-.02-.27-.11-.35-.1-.08-.25-.13-.47-.15l-.76-.08c-.41-.04-.7-.15-.89-.35-.19-.19-.25-.46-.21-.81.03-.28.14-.54.33-.78.18-.24.41-.43.7-.59.28-.16.59-.26.92-.31.46-.07.82-.02,1.07.14.25.16.41.39.47.7,0,.03.01.06.01.09,0,.03,0,.06.01.1l-.72.21c-.02-.19-.1-.34-.23-.46-.13-.12-.34-.15-.64-.11-.2.03-.39.09-.56.19-.17.09-.31.21-.41.34-.11.13-.17.27-.19.42-.02.16.02.28.13.36.11.08.29.13.54.15l.7.07c.41.04.71.15.89.34.18.19.25.45.2.79-.03.22-.1.42-.21.62-.12.19-.27.37-.45.52-.19.16-.4.29-.63.39-.24.1-.49.18-.77.22Z"/>
      <path d="m167.22,119.19c-.39.06-.72.03-1-.09s-.49-.32-.64-.59c-.15-.27-.23-.61-.23-1s.06-.75.18-1.13c.12-.38.29-.72.52-1.04.23-.32.5-.59.82-.8.32-.22.68-.35,1.08-.41.25-.04.47-.04.68,0,.21.04.38.1.54.2.15.1.28.23.37.39.09.16.15.35.17.56l-.76.24c-.01-.12-.04-.24-.09-.33-.05-.1-.12-.18-.2-.24-.09-.06-.19-.11-.31-.13-.12-.02-.26-.02-.42,0-.29.04-.55.15-.77.32-.22.17-.41.38-.57.62-.15.25-.27.51-.35.79s-.12.56-.12.83c0,.25.04.46.12.64s.2.32.36.4c.16.09.38.11.63.07.17-.02.33-.07.47-.14.15-.07.28-.15.4-.25s.23-.21.32-.34c.09-.12.16-.26.22-.4l.73.09c-.09.23-.21.44-.36.64-.15.19-.31.37-.5.52-.19.15-.39.27-.61.37-.22.1-.45.17-.68.2Z"/>
      <path d="m169.77,118.71l.79-4.9.77-.11-.79,4.9-.77.11Zm1.31-5.79c-.15.02-.26-.01-.35-.1-.09-.09-.12-.2-.1-.35.02-.15.1-.28.22-.39.12-.12.26-.19.4-.21.15-.02.26.01.35.1.09.09.12.2.1.35-.02.15-.1.28-.22.4-.12.12-.26.19-.4.21Z"/>
      <path d="m173.25,111.73l-1.07,6.62-.77.11,1.07-6.62.77-.11Z"/>
      <path d="m174.88,111.49l-1.07,6.62-.77.12,1.07-6.62.77-.11Z"/>
      <path d="m176.47,117.81c-.4.06-.74,0-1.01-.16-.27-.16-.46-.43-.57-.78-.11-.36-.12-.79-.04-1.31.08-.52.24-.97.48-1.38.23-.4.52-.73.86-.98.34-.25.71-.41,1.11-.47.29-.04.51-.03.68.04.17.07.3.16.39.27.09.11.16.22.2.33h.05s.12-.78.12-.78l.77-.11-.79,4.9-.75.11.12-.76h-.07c-.09.14-.2.27-.33.42s-.3.29-.5.41c-.2.12-.44.2-.72.25Zm.24-.73c.29-.04.55-.16.78-.35.23-.19.42-.43.57-.72.15-.29.26-.62.31-.99.06-.36.06-.67,0-.93-.06-.26-.18-.45-.36-.57s-.42-.16-.71-.12c-.3.04-.56.16-.79.35-.23.19-.42.43-.57.72-.15.29-.25.61-.31.96-.06.35-.05.66,0,.93.06.26.18.46.36.59s.42.17.71.13Z"/>
      <path d="m181.67,116.94l1.07-6.62,2.23-.33c.49-.07.88-.04,1.18.09.3.13.5.34.62.63.11.29.14.63.08,1.03-.06.4-.2.77-.42,1.11-.21.34-.5.63-.86.86-.36.23-.78.38-1.27.46l-1.64.24.12-.74,1.6-.24c.34-.05.62-.15.85-.3.23-.15.41-.33.54-.56.13-.22.22-.46.26-.72.04-.26.03-.48-.04-.67-.07-.19-.19-.32-.39-.41-.19-.09-.46-.1-.79-.05l-1.38.21-.95,5.88-.81.12Z"/>
      <path d="m186.76,116.18l.79-4.9.77-.11-.79,4.9-.77.12Zm1.31-5.8c-.15.02-.26-.01-.35-.1s-.12-.2-.1-.35c.02-.15.1-.28.22-.4s.26-.19.4-.21c.15-.02.26.01.35.1.09.09.12.2.1.35-.02.15-.1.28-.22.4-.12.12-.26.19-.41.21Z"/>
      <path d="m188.26,115.96l.1-.59,3.21-3.94v-.04s-2.56.38-2.56.38l.12-.72,3.58-.53-.1.63-3.13,3.89v.04s2.63-.39,2.63-.39l-.11.73-3.73.55Z"/>
      <path d="m192.57,115.32l.1-.59,3.21-3.94v-.04s-2.56.38-2.56.38l.12-.72,3.58-.53-.1.63-3.13,3.89v.04s2.63-.39,2.63-.39l-.11.73-3.73.55Z"/>
      <path d="m198.88,114.48c-.39.06-.72.03-1-.1-.28-.12-.49-.32-.64-.59-.15-.27-.23-.6-.23-1s.06-.76.18-1.13c.12-.37.29-.72.52-1.04.23-.32.5-.58.82-.8.32-.21.68-.35,1.08-.41.39-.06.72-.03,1,.09.28.12.5.32.65.59.15.27.23.61.23,1.01s-.06.77-.18,1.14c-.12.37-.3.72-.52,1.04-.23.31-.5.58-.82.79-.32.21-.68.35-1.07.41Zm.02-.69c.29-.04.55-.15.78-.32.23-.17.41-.38.57-.63.15-.25.27-.51.34-.79.08-.28.11-.55.11-.82,0-.25-.04-.46-.12-.65-.08-.18-.2-.32-.36-.4s-.38-.11-.64-.07c-.29.04-.55.15-.77.32-.22.17-.41.38-.56.63-.15.25-.27.51-.35.8-.08.28-.12.56-.12.83,0,.37.09.66.27.87s.46.3.85.24Z"/>
      <path d="m202.91,110.95l-.47,2.9-.77.11.8-4.9.74-.11-.19,1.19h-.13c.22-.47.48-.81.77-1.04.29-.23.62-.37.98-.42.33-.05.61-.02.85.08.23.1.4.29.5.55.1.26.11.6.05,1.02l-.5,3.07-.77.11.5-3.06c.06-.39.02-.67-.13-.85-.15-.18-.39-.24-.72-.19-.23.03-.46.12-.66.25-.21.13-.38.31-.53.53s-.24.48-.29.77Z"/>
      <path d="m206.39,113.26l.79-4.9.77-.11-.79,4.9-.77.11Zm1.31-5.79c-.15.02-.26-.01-.35-.1-.09-.09-.12-.2-.1-.35.02-.15.1-.28.22-.39.12-.12.26-.19.4-.21.15-.02.26.01.35.1.09.09.12.2.1.35-.02.15-.1.28-.22.4-.12.12-.26.19-.4.21Z"/>
    </g>
  </g>
</svg>